# Blender v2.79 (sub 0) OBJ File: ''
# www.blender.org
mtllib untitled.mtl
o Cylinder_Cylinder.004
v 0.000000 0.000000 -0.500000
v 0.000000 1.000000 -0.500000
v 0.097545 1.000000 -0.490392
v 0.097545 0.000000 -0.490393
v 0.191342 1.000000 -0.461940
v 0.191342 0.000000 -0.461940
v 0.277785 1.000000 -0.415735
v 0.277785 0.000000 -0.415735
v 0.353554 1.000000 -0.353553
v 0.353554 0.000000 -0.353554
v 0.415735 1.000000 -0.277785
v 0.415735 0.000000 -0.277785
v 0.461940 1.000000 -0.191341
v 0.461940 0.000000 -0.191342
v 0.490393 1.000000 -0.097545
v 0.490393 0.000000 -0.097545
v 0.500000 1.000000 0.000000
v 0.500000 0.000000 0.000000
v 0.490393 1.000000 0.097545
v 0.490393 -0.000000 0.097545
v 0.461940 1.000000 0.191342
v 0.461940 -0.000000 0.191342
v 0.415735 1.000000 0.277785
v 0.415735 -0.000000 0.277785
v 0.353554 1.000000 0.353554
v 0.353554 -0.000000 0.353554
v 0.277785 1.000000 0.415735
v 0.277785 -0.000000 0.415735
v 0.191342 1.000000 0.461940
v 0.191342 -0.000000 0.461940
v 0.097545 1.000000 0.490393
v 0.097545 -0.000000 0.490393
v 0.000000 1.000000 0.500000
v 0.000000 -0.000000 0.500000
v -0.097545 1.000000 0.490393
v -0.097545 -0.000000 0.490393
v -0.191342 1.000000 0.461940
v -0.191342 -0.000000 0.461940
v -0.277786 1.000000 0.415735
v -0.277786 -0.000000 0.415734
v -0.353554 1.000000 0.353553
v -0.353554 -0.000000 0.353553
v -0.415735 1.000000 0.277785
v -0.415735 -0.000000 0.277785
v -0.461940 1.000000 0.191342
v -0.461940 -0.000000 0.191342
v -0.490393 1.000000 0.097545
v -0.490393 -0.000000 0.097544
v -0.500000 1.000000 -0.000000
v -0.500000 0.000000 -0.000000
v -0.490393 1.000000 -0.097545
v -0.490393 0.000000 -0.097545
v -0.461940 1.000000 -0.191342
v -0.461940 0.000000 -0.191342
v -0.415734 1.000000 -0.277785
v -0.415734 0.000000 -0.277786
v -0.353553 1.000000 -0.353554
v -0.353553 0.000000 -0.353554
v -0.277784 1.000000 -0.415735
v -0.277784 0.000000 -0.415735
v -0.191341 1.000000 -0.461940
v -0.191341 0.000000 -0.461940
v -0.097544 1.000000 -0.490393
v -0.097544 0.000000 -0.490393
v 0.000000 0.000000 -0.475000
v 0.092668 0.000000 -0.465873
v 0.092668 1.000000 -0.465873
v 0.000000 1.000000 -0.475000
v 0.181774 0.000000 -0.438843
v 0.181774 1.000000 -0.438843
v 0.263896 0.000000 -0.394948
v 0.263896 1.000000 -0.394948
v 0.335876 0.000000 -0.335876
v 0.335876 1.000000 -0.335875
v 0.394948 0.000000 -0.263896
v 0.394948 1.000000 -0.263896
v 0.438843 0.000000 -0.181774
v 0.438843 1.000000 -0.181774
v 0.465873 0.000000 -0.092668
v 0.465873 1.000000 -0.092668
v 0.475000 0.000000 0.000000
v 0.475000 1.000000 0.000000
v 0.465873 -0.000000 0.092668
v 0.465873 1.000000 0.092668
v 0.438843 -0.000000 0.181774
v 0.438843 1.000000 0.181775
v 0.394948 -0.000000 0.263896
v 0.394948 1.000000 0.263896
v 0.335876 -0.000000 0.335876
v 0.335876 1.000000 0.335876
v 0.263896 -0.000000 0.394948
v 0.263896 1.000000 0.394948
v 0.181774 -0.000000 0.438843
v 0.181774 1.000000 0.438843
v 0.092668 -0.000000 0.465873
v 0.092668 1.000000 0.465873
v 0.000000 -0.000000 0.475000
v 0.000000 1.000000 0.475000
v -0.092668 -0.000000 0.465873
v -0.092668 1.000000 0.465873
v -0.181775 -0.000000 0.438843
v -0.181775 1.000000 0.438843
v -0.263896 -0.000000 0.394948
v -0.263896 1.000000 0.394948
v -0.335876 -0.000000 0.335876
v -0.335876 1.000000 0.335876
v -0.394948 -0.000000 0.263896
v -0.394948 1.000000 0.263896
v -0.438843 -0.000000 0.181774
v -0.438843 1.000000 0.181775
v -0.465873 -0.000000 0.092667
v -0.465873 1.000000 0.092668
v -0.475000 0.000000 -0.000000
v -0.475000 1.000000 -0.000000
v -0.465873 0.000000 -0.092669
v -0.465873 1.000000 -0.092668
v -0.438843 0.000000 -0.181775
v -0.438843 1.000000 -0.181775
v -0.394947 0.000000 -0.263896
v -0.394947 1.000000 -0.263896
v -0.335876 0.000000 -0.335876
v -0.335876 1.000000 -0.335876
v -0.263896 0.000000 -0.394949
v -0.263896 1.000000 -0.394948
v -0.181774 0.000000 -0.438843
v -0.181774 1.000000 -0.438843
v -0.092667 0.000000 -0.465873
v -0.092667 1.000000 -0.465873
vn 0.0980 0.0000 -0.9952
vn 0.2903 0.0000 -0.9569
vn 0.4714 0.0000 -0.8819
vn 0.6344 0.0000 -0.7730
vn 0.7730 0.0000 -0.6344
vn 0.8819 0.0000 -0.4714
vn 0.9569 0.0000 -0.2903
vn 0.9952 -0.0000 -0.0980
vn 0.9952 -0.0000 0.0980
vn 0.9569 -0.0000 0.2903
vn 0.8819 -0.0000 0.4714
vn 0.7730 -0.0000 0.6344
vn 0.6344 -0.0000 0.7730
vn 0.4714 -0.0000 0.8819
vn 0.2903 -0.0000 0.9569
vn 0.0980 -0.0000 0.9952
vn -0.0980 -0.0000 0.9952
vn -0.2903 -0.0000 0.9569
vn -0.4714 -0.0000 0.8819
vn -0.6344 -0.0000 0.7730
vn -0.7730 -0.0000 0.6344
vn -0.8819 -0.0000 0.4714
vn -0.9569 -0.0000 0.2903
vn -0.9952 0.0000 0.0980
vn -0.9952 0.0000 -0.0980
vn -0.9569 0.0000 -0.2903
vn -0.8819 0.0000 -0.4714
vn -0.7730 0.0000 -0.6344
vn -0.6344 0.0000 -0.7730
vn -0.4714 0.0000 -0.8819
vn -0.2903 0.0000 -0.9569
vn -0.0980 0.0000 -0.9952
vn -0.0000 1.0000 0.0000
vn 0.0000 -1.0000 -0.0000
usemtl None
s 1
f 1//1 2//1 3//1 4//1
f 4//2 3//2 5//2 6//2
f 6//3 5//3 7//3 8//3
f 8//4 7//4 9//4 10//4
f 10//5 9//5 11//5 12//5
f 12//6 11//6 13//6 14//6
f 14//7 13//7 15//7 16//7
f 16//8 15//8 17//8 18//8
f 18//9 17//9 19//9 20//9
f 20//10 19//10 21//10 22//10
f 22//11 21//11 23//11 24//11
f 24//12 23//12 25//12 26//12
f 26//13 25//13 27//13 28//13
f 28//14 27//14 29//14 30//14
f 30//15 29//15 31//15 32//15
f 32//16 31//16 33//16 34//16
f 34//17 33//17 35//17 36//17
f 36//18 35//18 37//18 38//18
f 38//19 37//19 39//19 40//19
f 40//20 39//20 41//20 42//20
f 42//21 41//21 43//21 44//21
f 44//22 43//22 45//22 46//22
f 46//23 45//23 47//23 48//23
f 48//24 47//24 49//24 50//24
f 50//25 49//25 51//25 52//25
f 52//26 51//26 53//26 54//26
f 54//27 53//27 55//27 56//27
f 56//28 55//28 57//28 58//28
f 58//29 57//29 59//29 60//29
f 60//30 59//30 61//30 62//30
f 62//31 61//31 63//31 64//31
f 64//32 63//32 2//32 1//32
f 65//17 66//17 67//17 68//17
f 66//18 69//18 70//18 67//18
f 69//19 71//19 72//19 70//19
f 71//20 73//20 74//20 72//20
f 73//21 75//21 76//21 74//21
f 75//22 77//22 78//22 76//22
f 77//23 79//23 80//23 78//23
f 79//24 81//24 82//24 80//24
f 81//25 83//25 84//25 82//25
f 83//26 85//26 86//26 84//26
f 85//27 87//27 88//27 86//27
f 87//28 89//28 90//28 88//28
f 89//29 91//29 92//29 90//29
f 91//30 93//30 94//30 92//30
f 93//31 95//31 96//31 94//31
f 95//32 97//32 98//32 96//32
f 97//1 99//1 100//1 98//1
f 99//2 101//2 102//2 100//2
f 101//3 103//3 104//3 102//3
f 103//4 105//4 106//4 104//4
f 105//5 107//5 108//5 106//5
f 107//6 109//6 110//6 108//6
f 109//7 111//7 112//7 110//7
f 111//8 113//8 114//8 112//8
f 113//9 115//9 116//9 114//9
f 115//10 117//10 118//10 116//10
f 117//11 119//11 120//11 118//11
f 119//12 121//12 122//12 120//12
f 121//13 123//13 124//13 122//13
f 123//14 125//14 126//14 124//14
f 125//15 127//15 128//15 126//15
f 127//16 65//16 68//16 128//16
f 47//33 112//33 114//33 49//33
f 45//33 110//33 112//33 47//33
f 43//33 108//33 110//33 45//33
f 41//33 106//33 108//33 43//33
f 39//33 104//33 106//33 41//33
f 37//33 102//33 104//33 39//33
f 35//33 100//33 102//33 37//33
f 33//33 98//33 100//33 35//33
f 31//33 96//33 98//33 33//33
f 29//33 94//33 96//33 31//33
f 27//33 92//33 94//33 29//33
f 25//33 90//33 92//33 27//33
f 23//33 88//33 90//33 25//33
f 21//33 86//33 88//33 23//33
f 19//33 84//33 86//33 21//33
f 17//33 82//33 84//33 19//33
f 15//33 80//33 82//33 17//33
f 13//33 78//33 80//33 15//33
f 11//33 76//33 78//33 13//33
f 9//33 74//33 76//33 11//33
f 7//33 72//33 74//33 9//33
f 5//33 70//33 72//33 7//33
f 3//33 67//33 70//33 5//33
f 2//33 68//33 67//33 3//33
f 63//33 128//33 68//33 2//33
f 61//33 126//33 128//33 63//33
f 59//33 124//33 126//33 61//33
f 57//33 122//33 124//33 59//33
f 55//33 120//33 122//33 57//33
f 53//33 118//33 120//33 55//33
f 51//33 116//33 118//33 53//33
f 49//33 114//33 116//33 51//33
f 28//34 91//34 89//34 26//34
f 30//34 93//34 91//34 28//34
f 32//34 95//34 93//34 30//34
f 34//34 97//34 95//34 32//34
f 36//34 99//34 97//34 34//34
f 38//34 101//34 99//34 36//34
f 40//34 103//34 101//34 38//34
f 42//34 105//34 103//34 40//34
f 44//34 107//34 105//34 42//34
f 46//34 109//34 107//34 44//34
f 48//34 111//34 109//34 46//34
f 50//34 113//34 111//34 48//34
f 52//34 115//34 113//34 50//34
f 54//34 117//34 115//34 52//34
f 56//34 119//34 117//34 54//34
f 58//34 121//34 119//34 56//34
f 60//34 123//34 121//34 58//34
f 62//34 125//34 123//34 60//34
f 64//34 127//34 125//34 62//34
f 1//34 65//34 127//34 64//34
f 4//34 66//34 65//34 1//34
f 6//34 69//34 66//34 4//34
f 8//34 71//34 69//34 6//34
f 10//34 73//34 71//34 8//34
f 12//34 75//34 73//34 10//34
f 14//34 77//34 75//34 12//34
f 16//34 79//34 77//34 14//34
f 18//34 81//34 79//34 16//34
f 20//34 83//34 81//34 18//34
f 22//34 85//34 83//34 20//34
f 26//34 89//34 87//34 24//34
f 24//34 87//34 85//34 22//34
